<svg viewBox="0 0 200 200" height="200" width="200" xmlns="http://www.w3.org/2000/svg" data-type="color">
    <g>
        <path d="M74 109.4c.1-.5-.1-.3-.6 1.1-.1.4-.1.7-.2 1.1.3-.7.5-1.4.8-2.2z" fill="#94a5ed" data-color="1"/>
        <path d="M68.3 113.9c.2-1.7.4-3.8 0-2.7 0 .9-.1 1.4-.2 2l-.1 1v1h.2c.7.2 1.4.1 2-.2.4-.2.6-.3.5-.2.4-.3.7-.7 1.1-1.1.2-.2.4-.5.5-.8.1-.2.2-.5.3-.7-.6.9-1.3 1.8-2.1 2.5-.5.4-1.2.6-1.8.5-.2 0-.3 0-.5-.1h-.1v-.3c0-.3.1-.7.1-1 .1-.6.1 0 .1.1z" fill="#94a5ed" data-color="1"/>
        <path d="M54.1 101.1l.9-.3-.9.3z" fill="#94a5ed" data-color="1"/>
        <path d="M32.2 94.7c-.3 0-.7.1-1 .2.4 0 .7-.1 1-.2z" fill="#94a5ed" data-color="1"/>
        <path d="M47.4 92.8l-.9.1c.3 0 .6-.1.9-.1z" fill="#94a5ed" data-color="1"/>
        <path d="M54.1 101.1l-2.3.8c.8-.2 1.5-.5 2.3-.8z" fill="#94a5ed" data-color="1"/>
        <path d="M66.2 113.6c.3-.4.5-.8.7-1.2-.2.4-.4.8-.7 1.2.1-.1.1 0 0 0z" fill="#94a5ed" data-color="1"/>
        <path d="M47 111c.1 0 .2-.1.3-.1l.3-.2c.2-.1.3-.3.4-.4-.2.1-.4.3-.5.4l-.2.2-.3.1z" fill="#94a5ed" data-color="1"/>
        <path d="M57.1 107.5c.3-.2.6-.6.8-.9-.3.4-.7.7-1.1 1 0 0 .1 0 .3-.1z" fill="#94a5ed" data-color="1"/>
        <path d="M60 115.7c.3.1.5.1.8.1h-.4l-.4-.1z" fill="#94a5ed" data-color="1"/>
        <path d="M56.3 102c.1 0 .2 0 .3-.1 0 0-.1.1-.3.1z" fill="#94a5ed" data-color="1"/>
        <path d="M138.9 116.4c-.2-.1-.3-.1 0 0z" fill="#94a5ed" data-color="1"/>
        <path d="M126.9 108.9l.2.5c.1 0 .1.1.1.1l-.3-.6z" fill="#94a5ed" data-color="1"/>
        <path d="M107.5 69.1c-.4-1.4 0-.3.5.6.1.3.3.6.5.9.1 0 0-.3-.4-1.3 0 .5-1.8-3.7-.6-.2z" fill="#94a5ed" data-color="1"/>
        <path d="M65.7 114.2c-.3.3-.6.6-1 .9.4-.2.7-.5 1-.9z" fill="#94a5ed" data-color="1"/>
        <path d="M60.7 83.5c.2 0 .4.1.7.1-.3-.1-.5-.1-.7-.1z" fill="#94a5ed" data-color="1"/>
        <path d="M30.7 91.1c-.4 0-.7-.1-1.1-.2.4.1.7.2 1.1.2z" fill="#94a5ed" data-color="1"/>
        <path d="M35.7 83.6c-.6 0-.9-.1-1.7-.1h.3c.4 0 .9 0 1.4.1z" fill="#94a5ed" data-color="1"/>
        <path d="M29.8 78.2l-.5-.1h-.8l1.3.1z" fill="#94a5ed" data-color="1"/>
        <path d="M151.8 110.8c-.4-.3-.7-.6-.9-.8.3.3-3-1.6.9.8z" fill="#94a5ed" data-color="1"/>
        <path d="M66.2 113.6c-.1.3-.3.5-.5.7.2-.2.4-.5.6-.7 0-.2 0-.2-.1 0z" fill="#94a5ed" data-color="1"/>
        <path d="M34.6 85.1c-1.4 0-2.8-.1-4.1-.1 1.2 0 2.7 0 4.1.1z" fill="#94a5ed" data-color="1"/>
        <path d="M164.8 91.2h-.9.9z" fill="#94a5ed" data-color="1"/>
        <path d="M20.1 76c0-.1 0-.2-.1-.3l2 .4 1.7.3h.5l-1.7-.2c-.8-.1-1.6-.3-2.5-.4 0 0 0 .1.1.2z" fill="#94a5ed" data-color="1"/>
        <path d="M143.8 105.2c-3.1-2.4-1.6-.9-2.4-1.3-3.8-2.8-1.6-1.5-2.8-2.5-.8-.5-1.5-1.1-2.3-1.6l-1 1.5c1.5.7 2.8 1.4 4 2.1.1.1.5.3 0 .1 2.8 1.4 8 4.5 11.2 6.2.1.1.3.2.4.3-.4-.4-.4-.6-.3-.6.8.5 1.4.9 2 1.2.1.1.3.2.5.2l.4.1c.3 0 .5.1.7.1-.2 0-.5 0-.7-.1l-.4-.1c-.2-.1-.4-.1-.7-.2.6.4 1.3.5 2 .4.5 0 .5 0 .4.1-.4.1-.7.1-1.1.1-.3 0-.5-.1-.7-.2l-.6-.3c-.3-.2-.5-.3-.6-.3.2.1.4.2.6.4.2.1.5.3.8.3.5.2 1.1.2 1.7.1 1-.3 1.9-.8 2.6-1.5.1-.1.2-.2.3-.2l.3-.3c.2-.2.4-.5.6-.7l.3-.3.1-.2s.1-.1 0-.1l-.1-.1-.7-.4-1.3-.6-1-.5c-.1-.1.2 0 .7.2l.8.4c.4.2.9.4 1.2.6l.5.3h.1v.1l-.1.1-.1.2c-.2.2-.3.4-.4.5s0 0 .2-.1l.4-.4.3-.3-.1-.1-.2-.1.3.2c-.1.1-.2.2-.2.3l-.5.6-.6.6c-.2.2-.4.3-.5.5-.6.5-1.3.9-2 1.2.9-.3 1.1-.5 1.1-.4-.2.2-.4.3-.7.4l-.5.2c-.2.1-.3.1-.3.1-.1 0 .2.1 1-.2.6-.3 1.2-.7 1.8-1.2l.2-.2.3-.3c.2-.2.3-.4.5-.5.3-.4.5-.7.8-1l.1-.1v-.1l-.3-.1-.5-.3c-.3-.2-.7-.4-1-.5l-1.3-.6c-1.8-.9-3.6-1.7-5.3-2.6-1.2-.5.3.4-.9-.1-7.2-3.4-5.3-3.3-10.7-5.7-.8-.3-1.4-.5-2.5-.9l-.5 1c.8.2 1.8.6 3.4 1.3l-1.4-.3c5.1 2 3 .8 8.3 2.9-1-.3-4-1.4-3.3-1.1 3.4 1.5 2.5.8 5.2 1.8l.5.4 4.2 1.5c.7.2 1.5.5 2.2.7l1.1.3 1.2.3c.2 0 .4.1.6.1l.6.1c.4 0 .9.1 1.3 0 2-.1 3.9-1.2 5.1-2.9.2-.2.3-.5.5-.8.2-.5.8-1.2-.1-1.2l.5.1h.1v.4c0 .1 0 .1.1-.1.1-.1.1-.2.2-.4l-.6-.3c-.4-.2-.8-.3-1.2-.4l-.9-.2-1.5-.4-3-.8-6.2-1.7-12.4-3.3-2.9-.6-.3 1.5c.7.1 1.2.3.5.2 3 .7.2-.1 1.6.1 1.7.3 2.2.5 1.1.4l20.7 3.4-1.1-.1c1.1.2 2 .2 2.7.3h1.1c.3 0 .7-.1 1-.2.7-.2 1.3-.4 1.9-.7.8-.4 1.5-.8 2.3-1.4-.2.2-.4.4-.6.5l1.5-1.2c.2-.2.5-.5.8-.9.3-.3.6-.7.8-1l.4-.5.1-.1v-.1h-.1l-.3-.1c-.4-.1-.8-.2-1.3-.2l-2.3-.3-7.2-.9c-4.7-.6-9.1-1.2-12.7-1.8-1.4.1-9.4-1.3-10-1h-.1l-.1 1c5.4.3 3.9.3 11.5.7 2 .1 3.1-.2 5.6-.1l.1.2 3.4-.1 1.8.3 2.4.1c-.6 0-1.3-.1-1.9-.2 2 0 3.9.2 5.9.4l.6.1h1.8c.6 0 1-.1 1.1-.1.8-.2 1.6-.6 2.3-1.1.7-.5 1.2-1.1 1.7-1.8.2-.3.4-.7.6-1 .1-.2.2-.4.3-.5l.1-.3c.1-.1.1-.3.2-.4.2-.5.4-1.1.5-1.7v-.2c0-.1.1-.2 0-.1h-.4c-.3 0-.5-.1-.9-.1h1.4v.3c-.1.4-.2.9-.3 1.4l-.3.8c-.1.1-.1.2-.1.3l-.1.2c.1-.2.1-.3.2-.5s.1-.4.2-.6c.1-.4.2-.7.3-1l.2-.7v-.2h-.3c-.3 0-.5-.1-.8-.2-1-.1-2-.2-3-.1.6.1-.3.1-.4.2-2.1-.2-7-.3-10.6-.4l.7-.1c-6.5-.2-13.7-.3-21.1-.5 2.6.1 2 .4-.1.3l-.9-.2c-1.4.1 2.2.1-.6.2-.5 0-1.1 0-1.6-.1v1.2c.2 0 .2.1 0 .1v-1.4c.4-.1.9-.1 1.4-.1h-1.4V85l2-.1c.2.1-.6.1-.8.2 1.4-.2 5.7.1 7.7-.2l.2.1c7.3-.1 10.6-.3 16.6-.5 1.4-.2 2.8-.4 4.2-.5l1.6-.1.8-.1.9-.1c1.2-.2 2.4-.7 3.4-1.4 1.1-.7 2-1.6 2.8-2.6.2-.3.4-.5.6-.8.1-.1.2-.3.3-.4l.2-.3c.1-.1.1-.2.2-.4.2-.5.4-.9.6-1.4l.2-.7c.1-.2.2-.4.2-.7l-.9.1-1.9.3-.5.1h-.3c-.3.1-.4.1-.4.1s.2.1-.6.2c-.3-.1-5.5.3-2.8 0-2.4.2-4.9.3-7.3.3-2.2 0-4.7-.1-8.7-.3.9.1 1.8.2 1.3.2-1 0-2.1-.1-3.1-.3h.4c-4.5-.1-9.7-.5-14.6-.8-4.4-.3-8.9-.2-13.3.2h.4c-1.2.1-2.5.3-3.7.4-1.3.2-2.5.5-3.7.7-3.4.7 2-.6-.5-.1l-7.8 1.9h-.2v-1c0-.4-.1-.8-.2-1.2-.1-.8-.3-1.5-.6-2.2-.2-.7-.5-1.5-.8-2.2-.3-.7-.7-1.5-1-2.2-1.2-3.7-2.1-7.5-2.6-11.3-.4-2.3-.5-4.6-.5-6.9 0-.5 0-1.1.1-1.6 0-.2.1-.6.1-.8v-.8c0-1 0-2-.2-3l-.1.4c-.4-1.8-.3-2.2-.6-3.5 0 .2.3 2 0 .9-.2-1-.5-1.9-.8-2.8-.2-.7-.5-1.4-.9-2.1-.1-.2-.3-.5-.5-.7-.2-.2-.4-.3-.6-.3-.1 0-.2 0-.3.1l-.1.1c0 .1-.1.1-.1.2l-.4-.1-.1.2c-.1.2-.2.3-.2.5l-.2.7-.1.4c0 .1-.1.1-.1.2l-.2.4c-.1.1-.1.2-.2.3l-.2.3-.4.6-.7 1.4c-2.3 3.3-4 7-5 10.8-.2 1-.4 2-.4 3.1 0 1 0 2.1.1 3.1.2 2 .5 3.9.6 5.8.1 1.9.1 3.8 0 5.8-.1 1.9-.3 3.8-.7 5.6-.2.9-.5 1.7-.8 2.5-.1.3-.3.6-.5.8 0 0-.1 0-.1.1h-.2c-.4-.1-.7-.2-1.1-.3-.8-.3-2-.6-3.7-1.2l2 .4c-2.8-.8-5.6-1.5-8.5-2.1-1.5-.3-3-.5-4.4-.5h-4.4c-5.8.1-11.6.2-17.2.5.6-.1 1.2-.2 1.8-.2-1.2 0-3.4 0-5.3.1-1.2 0-2.3.1-3.5.3-1.7 0-.4-.1-1.5-.1-2.4 0-5.9.4-7.2.3.4-.1.7-.1 1.1-.1-1.5.1-7.2.3-5.7.4-3.7.1-7.5-.1-11.2-.5h-.6l-.9-.1c-.7-.1-1.3-.2-2-.3 0 .2.1.4.2.6l.2.6c.2.5.4.9.6 1.3.1.2.2.5.4.7.1.1.2.3.2.4.2.3.3.5.5.7.4.7 1 1.2 1.6 1.6-.1 0 .2.4.8.9.8.7 1.7 1.1 2.7 1.5.3.1.6.2.9.2l.9.1c.6.1 1.2.1 1.7.1h2.7c-.9.1 2.3.1 1.3.3 3 .1 5.8 0 5.3-.1 5.6.4 11.2-.2 14.3.3l7-.1v-1.6l-18.4 1c.3-.3 8.9-.4 8.6-.7-7.7.4-12.1.9-19.7 1.1-2 0 1.1-.2 1.8-.3l-5.5.2-2.8.1h-1.1l-1 .1h-.1v.1l.1.3.1.5c.1.3.2.7.3 1 .1.2.1.4.2.5l.2.3.3.6c.2.4.5.8.8 1.2.6.8 1.4 1.4 2.3 1.8.9.4 1.8.6 2.8.7.5 0 .9 0 1.4-.1l1.3-.1c-.5.1-.9.2-1.4.2 1 0 2-.1 2.9-.3l-1.3.1c-1.1 0 .2-.2 1.9-.4 1.6-.2 3.5-.4 3.7-.5-2.3.5 6.7-.3 3.1.4.9-.1 2-.2 1.8-.3 1.3 0 1.7 0 .4.2 4.8-.3 3.1-.4 7.4-.6 0 .1-.9.1-1.3.2 2.2-.2 4.4-.4 8.1-.5-.2 0 .2.1-.9.1l3.6-.2-.2-.8c-4.5.7-8.4 1.5-14 2.2 2-.6-2.4.2-2.8 0l-3.7.6 1.5-.1c-3.2.5-6.1 1.1-8.9 1.4l2.4-.4-6.4 1 3.7-.4c-1.6.3-1.5.4-1.6.4 0 0-.1.1-.4.1l-.7.1-1.1.1h-.2l-.6.1c-.1 0 0 .1 0 .1l.1.2.3.4c.2.2.4.5.6.8.1.1.2.3.4.4l.3.3c.5.4.9.8 1.2 1.1.7.5 1.5.8 2.4 1.1 1 .3 2.1.4 3.2.4.6 0-.5.3-.1.3.8-.2 2.7-.4 4.6-.8 1.9-.3 3.9-.7 4.9-1-.7.2-.7.3-.4.3l1.3-.4c1.5-.2 1.7-.2 1.5-.1 4.5-.8-1.5 0 3.9-.9-.4.1-.2.1-1.1.3 3.7-.7 7.2-1.5 10.6-2.2l-.1-.6c-1.5.4-3 .9-4.5 1.3-1.5.2 4.2-1.3 2.5-1-6.9 2-14.2 4.4-20.9 6.3l1.3-.3c-1 .5-2.1.8-3.2 1l-1.3.3c-.3.1-.6.1-.8.2l-.4.1h-.1l.1.2c.2.5.5 1 .9 1.5.3.4.6.7 1 1-.7-.6-1-.7-.8-.5.9 1 2.1 1.7 3.4 1.9 1.4.3 2.8.1 4.1-.3 2.6-.9 5.5-2 8.8-3.4l-.8.4c2.7-.9 6.9-2.6 9.8-3.7.8-.4 2.4-1.1 1.4-.8l1.4-.5-.7-.6c-4 1.9-7.7 3.9-11.3 5.9-1.8 1-3.6 2-5.3 2.9-.9.5-1.8.9-2.7 1.4l-1.6.8-.4.2-.2.1c0 .1.1.1.1.2.2.2.4.5.6.7-.2-.2-.5-.5-.7-.8l-.1-.1v-.1h.1l.2-.1.3-.2c.4-.3.6-.4.1-.1l-.5.3c-.1.1-.2.1-.2.2l.2.2c.3.3.5.6.8.9l.4.4c.1.1.2.2.4.3.2.2.5.4.8.6.5.4 1.1.6 1.8.7.7.1 1.4 0 2-.3-.2 0-.3.1-.5.1s-.3.1-.5.1c-.6.1-1.1-.1-1.6-.3.7.2 1.4.2 2 0 .1 0 .2-.1.3-.1l.3-.2c.2-.1.4-.2.6-.4.4-.3.7-.5 1.1-.7-2.6 1.8.1.2 1.4-.5-.2.1.2-.2 0-.2 3.3-1.7.4-.6 4.8-3l-.2.2c1.6-1 3-2 4.8-3 .8-.3-1.7 1.1-1.7 1.3 2.1-1.3 4.1-2.7 6.1-3.8l-.1-.1c-.3.2-.5.4-.8.6l.8-.6.2.2c-.9.5-1.9 1.2-2.7 1.7 1.4-.7 2.2-1.1 2.8-1.5l-.4-.7-1.7 1.3.2-.1-3.9 2.9 1-.7c-2.5 2.6-5.7 4.6-9.3 7.8 3.5-3.1.5-.6.7-1l-.8.6c-.4.3-.8.6-1.1.8l-.4.3-.2.1.1.1c.1.1.1.1-.1 0 .3.3.6.5 1 .7.3.2.6.4 1 .6.5.3 1 .5 1.6.6.6.2 1.3.2 2 .1.8-.2 1.5-.6 2.1-1.1.2 0 2-1.5 1.7-1.1 2.3-2-.6.4-.5.1 2.8-2.6 6.5-5.7 10.1-9.5l-.8-.7c-.7.9-1.3 1.9-2 2.9-1.2 1.7-2.3 3.4-3.4 5.1l-1.4 2.1-.8 1.3-.5.7-.2.4v.1l.1.1c.1 0 .1.1.2.1.3.2.5.3.4.3-.2 0-.4-.1-.6-.3-.1 0-.1-.1-.2-.1s-.2-.1-.1-.2l.2-.4c.2-.3.3-.5.3-.5-.3.3-.5.6-.7 1 .3.3.6.5 1 .7.2.1.4.2.5.2.2.1.3.1.5.1.3.1.7.1 1 .1.7 0 1.3-.2 1.9-.5.6-.3 1.1-.7 1.6-1.2-.4.4.1.1.8-.5.4-.5.8-1 1.1-1.6.2-.4.5-.9 1.1-2.2-.2.7-.5 1.4-.8 2.1 1.2-2.3 2.2-4.7 3-7.2.4-.6-.4 1.6-.7 2.5.4-1 .8-2.2 1.2-3.4l-.9-.2c-.4 2.2-.7 4.4-.7 5l.4-1.9c-.2 1.1-.3.5-.1-.3.1-1 .3-1.9.5-2.9l.7.2c-.1.3-.3.6-.4.8l.3-.9-.4-.1-.2 1 .3-.9h.1c-.5 1.1-1.1 2.8-1.8 4.5-.6 1.7-1.5 3.4-2.6 4.9.3-.5.5-1 .7-1.5-.3.6-.6 1.1-1 1.7l-.3.4-.4.3-.7.7c-.2.2-.5.3-.7.3 0-.1.3-.2 1-.8-.7.5-1.4.8-2.2 1.1-.7.2-1.4.2-2.1-.1-.2-.1-.1-.1.1 0-.4-.1-.7-.2-1.1-.4l-.1-.1s-.1-.1 0-.1l.2-.2.3-.5c-.1.2 0 .1 0 .2v.1s-.1.1-.1.2l-.5.3-.1.1.1.1-.1-.1v-.1l.1-.1.2-.3.4-.6.9-1.2c.6-.8 1-1.5 1.5-2.2.6-1 1.4-2 2.1-2.9l-.1.3c3.8-5.4.2-.6 2.9-4.8l.4-.4.1.1-2.3 1.7-.3.6c-.5.5-1.5 1.4-1.3 1.2-1.7 1.9.4-.2-.6.9-1.2 1.1-2.9 2.6-4.3 3.9-.9.9-2 1.7-3.2 2.2-.5.3.2 0 .6-.3.2-.1.4-.2.3-.1-.3.3-.7.6-1.1.8-.3 0-.6.1-1.1.2-.5.1-1.1 0-1.6-.1-.6-.1-1.3-.4-1.8-.7-.3-.2-.6-.4-.8-.6.3-.2.5-.4.8-.6l-.5.5c-.2.1.1.2.1.2.1.1.2.1.3.2.1.1.2.1.2.1l-.2-.2c-.1-.1-.4-.2 0-.4.8-.8 1.7-1.6 2.7-2.2 1.3-.9 2.6-1.9 3.6-2.7-.1-.3 4.3-3.5 7.6-6.1 0 0 .1-.1.4-.3l-.3-.4c-1.6.8-7.1 4-10 5.7l.1-.1c-.5.6-4.1 2.6-6.5 4.3 0-.2.4-.6 1.8-1.5-.8.5-1.6 1-2.3 1.5-.3.2-.6.4-.9.4-.6.1-1.3-.1-1.8-.4.2.1.4.1.7.1-.4-.1-.8-.3-1.1-.6-.2-.1-.4-.2-.5-.4l-.3-.2-.2-.1-.3-.3-.1-.2-.1-.1.1-.1.8-.5c1.9-1.1 3.8-2.1 5.8-3 .2-.3-3.6 1.3.8-1.1.2 0 .4.1-.7.7.4-.2 1.3-.8 2.1-1.2l-1.7 1.1c2-.9.9-.6 2.5-1.4 0 .1 1.2-.5 1-.3-.4.2-1.4.7-1.9 1 1.7-.9 3.9-1.9 4.6-2.2-.2 0-.1-.2 1.2-.8 3.3-1.7 1.2-.4 3.1-1.4.7-.5 2.6-1.4 2.8-1.6l1-1.5-1.6.9c-.1 0-.1.1-.1.1-.5.2-1.1.4-1.6.5-1.7.8-8.3 3.3-6.2 2.7l.5-.2-.3.1c-2.9 1.2-5.9 2.4-9 3.5l-2.3.8-1.2.4c-.4.1-.8.2-1.1.3-.8.1-1.5.2-2.3.1-.7-.1-1.5-.3-2.1-.7v-.1c-.4-.2-.8-.5-1.1-.8l-.5-.5c-.1-.1-.2-.3-.3-.4-.1-.1-.2-.3-.3-.5l-.1-.1h.1l.3-.1 1.2-.4c1.9-.6 3.6-1.1 4.8-1.5 1.1-.3 2.5-.6 2.1-.4 2.7-.8 3-1 7-2-.9.4-1.8.7-2.8.9 3.6-1 4.4-1.1 8.2-2.4-1.3.5 2.7-.6 4.4-1.1l-2.5.6c1.5-.5 2.8-.8 4.2-1.2l-.2-.9-1.1.2.9-.4c-7.4 1.3-13.3 3.2-19 3.7-1.9.5 4.1-.6 2.3-.1-3.4.6-7.1.8-8.1.9-1.4.1-2.8-.1-4.1-.7-.6-.2-1.1-.5-1.6-.9-.3-.2-.6-.5-.9-.8-.2-.2-.4-.4-.6-.7 0 .1.1.3-.1.2-.2-.2-.4-.3-.6-.5v-.1h.2l.4-.1 1-.2c3.4-.5 4.3-.3 2.1.1-.4.1-.8.1-1.2.1l-1 .2c-.1 0-.2 0-.3.1-.2 0-.1.1.2.1.1 0 .1-.1.2-.1 1.7-.2 6.5-.9 5.4-.6 2.6-.5 1.1-.3-.8-.1 4.4-.5 6.9-1 11.5-1.6-.7.1-1.4.1-.7 0 6.7-.9 2.9-.6 7.4-1.3 2.6-.2-.9.4 3.7-.3 2.8-.3.6.1-.5.4 1.7-.3 3.3-.5 4.8-.7l-.1-1.6h-5.4l2.2-.1c-1.3.1-2.4.1-3.5.2l1.3.1c-.8.1-1.6.1-2.4 0-1.3.2 1 .2-1.6.5-1.7 0-5.3.3-5.9.1 5.4-.2-.6-.2 4-.4-.9.1-2 .1-3.3.1-.2 0 .2-.1.5-.1-5.2.1-2.4.3-7.8.6.7-.2-1.3-.2-2.1-.1 2.2-.1 1.1.1-.9.4-1.7.1-2.7.2-3.4.3l-1 .1c-.3 0-.6 0-1.1.1h1l1-.1c-.6.1-1.1.2-1.7.2-1 0-1.9-.1-2.8-.6-.1-.1.4.1.8.2l.4.1-.5-.1-.5-.2c-.3-.1-.6-.3-.9-.5-.6-.4-1.1-1-1.5-1.6l-.3-.5-.3-.5-.2-.5c0-.1-.1-.2-.1-.3 0-.1-.1-.2-.1-.3v-.1h.3l.9-.1c1.7 0 .2.2 1.7.2 4.2-.3 4.5 0 8.9-.3-1.3-.1-1.5-.1 1.6-.3l-7.2.4 4.6-.4c-2.2.1-4.6.3-5.9.3 2.2-.2 2-.2.9-.3 3 .1 5.9-.4 9.4-.4l-.3.6c5.2 0 9.2-.6 15.9-.8h-2.2c.9-.2 4.2-.2 6.3-.3 0 .1.9.1 1.8.1v-1.4h-.4c.1.1-4.9 0-5.5.2l-3-.2c-5.4-.1-6.2.3-11.4.2 1.6-.1-.8-.3 2.7-.3-1.1-.1-2.2-.1-3.3 0-1-.1-4.8.1-6.4 0-1 .1-2 .2-2.9.1-.2 0 0-.1 0-.1h-1.8s.1.1.5.1c-.4 0-.8-.2-1.2-.2-.4-.1-.8-.2-1.2-.4-.9-.4-1.7-.9-2.4-1.5-1.5-1.2-2.9-3.4-3-4.3l1.6.2 2.1.2c1.3.1 2.5.3 3.5.4 1.9.1 4 .1 6.1 0l5.8-.3c-.2 0 0 .1-.7.1 4.8-.1 2.9-.5 8.3-.6 2.8.1-2.9.2-1.1.2.8.4 6.5-.3 10.2-.1l-.9.1c2.8.1 6.8-.4 11.4-.4 0 0-.2 0 0 .1 1.6-.1 3.8-.3 6.2-.3 1.2-.1 2.4 0 3.6.1 1.2.1 2.4.3 3.4.5-1.4-.1-2-.3-1.2 0 1 .2.8.1.9 0 .1 0 .5-.1 2.4.3 1.4.4 2.9.9 4.2 1.5-1.2-.4-2.4-.7-3.5-1 1.8.7 4.6 1.3 6.4 1.9h-.3l.9.3.4.1c.2.1.4.1.7.1.2 0 .4-.1.6-.2.2-.1.3-.2.5-.3l.6-.6c.3-.4.5-.8.6-1.2l.2-.6.2-.6c.5-2 .7-4.1.8-6.1 0 .2-.1.4-.1.6 0-1 0-2.1.1-3.1s.1-2.1 0-3.1l.2-1c-.1-1.1-.4-3.1-.8-5.2-.2-1.1-.3-2.2-.4-3.2 0-1 .1-2.1.3-3.1-.2 1.5-.2 3 0 4.5.2 1.7.6 3.6.8 5-.1-1.1-.4-3-.6-4.6-.1-1.2-.2-2.5-.1-3.8-.1.9-.1 1.8-.1 2.8-.4-2.6.3-6.1 2.2-10 .1.5 1.3-2 3.1-4.8.4-.7.9-1.5 1.3-2.2l.1-.2.1-.1v-.1c0-.1.1-.2.1-.3.1-.2.1-.4.1-.6 0 0 0-.1.1-.1s.1 0 .1.1c.1.1.1.2.1.3.1.2.1.3.2.5 0 .1.1.2.1.4l.1.5c.6 1.8 1 3.6 1.2 5.5.1.9.1 1.8 0 2.8-.1 1-.2 2-.2 3 0 2.1.1 4.1.4 6.2.3 2.2.7 4.3 1.2 6.5-.2-1.6 0-1 .2 0s.6 2.2.8 1.9c.3 1 .6 1.7.7 2.1s.2.7.3.8c.4 1 .8 2 1.1 3 .3 1 .6 2 .8 3 .1.7 0 .3-.2-.4-.1-.4-.3-.9-.5-1.3.3.9.6 1.9.6 2.9v2.4l.1.1s-.1-.1 0-.1c0-.1 0-.1 0 0 .2.2.5.4.7.6 0 .1.1.1.3.2.1.1.3.2.4.3l1.8-.4 1.4-.3c-.9.2-1.5.3-3.1.6-.1-.1-.3-.2-.4-.3l-.2-.1c-.1 0-.1 0-.1-.1l-.1-.1.1.1c0 .1.1.1.1.1l.2.1c.1.1.3.1.4.2l2.1-.6c.5-.1.9-.2 1.3-.3.8-.2 1.4-.3 2.1-.4 1.3-.2 2.7-.5 5.6-1.1-.6.2-1.3.3-1.9.5 3.1-1 11.9-1.2 15.1-1.5.6 0 1.3.2-.1.2 7.8 0 17.5.2 23.6.8l-.6.1c1.5 0 2.6-.1 4.4.1-.1 0-.6.1.1.1h5.9c-.6.1-1.1.1-1.7.1 2.1 0 4.2-.1 6.3-.3.9-.1 1.8-.2 2.7-.4l.6-.1c.1 0 .2 0 .2-.1l.5-.1c.2.1-1.1 2.8-2.9 4.1-.1-.1-1.3.7-2.9 1.1-.4.1-.9.2-1.3.2-.5 0-1 0-1.5.1l-2.7.1h.1c-8.9.3-15.2.6-23.5.9-1.2-.1-2.8-.1-4.6-.1v1.5c6 .3 14.8.4 21.1.7-1.3-.1.2-.2 1.7-.2 1.9.1 5.4-.1 5.1.2h-.7c2.8.3 5.7.4 8.6.4l.5-.3.4.1c.1 0 .2 0 .3.1 0 .1-.1.2-.1.3l-.2.3-.1.2c-.5 1-1.1 1.8-2 2.5-.9.7-1.9 1.1-3 1.2-1.1.1-2.4-.1-3.6-.1-4.9-.2-9.3-.3-11.5-.6h-6.4l.1-.2c-3.6-.1-6-.2-9.5-.3l-.1 1.8 5.4.7h-1.4c3.8.5 4.8.1 8.3.5l1 .4c3.3.4 6.6.9 9.9 1.4 1.6.2 3.3.4 4.9.6l2.5.3h1c-.2 0-.3.1-.5.1.1 0 .2 0 .2.1-.1.1-.2.2-.2.3l-.2.2-.3.3c-.2.2-.5.4-.7.6-.5.4-1 .7-1.5.9-.8.4-1.7.7-2.6.8-.6 0-1 .1-.7.2-1.3-.3-2.5-.4-3.8-.5-2.2-.3-4.3-.5-6.5-.8l.6-.1c-2.4-.2-4.9-.5-7.3-.9-1-.2-.8-.3.5 0-3.3-.7-2.6-.3-6.5-1.2l1.5.2c-1.3-.3-2.7-.5-4.1-.7l-.2.9.9.2c2.3.5 4.5 1.2 6.7 2.1 1.4.2 2.9.5 4.3 1 .2.1-.5 0-.8-.1 5.5 1.6 8.3 2 12 3.3l.6.3c-4.4-1.2-7.9-2.2-7.6-2.1 0 .2 3.5 1.2.6.6l5.4 1.2c1 .2 2 .5 3 .7l1.1.3.3.1s.1 0 0 0v.1l-.1.1c0 .1-.1.1-.2.1v-.1l-.1.2-.2.2-.3.4-.3.3c-.7.5-1.5.9-2.3 1-.7 0-1.5 0-2.2-.1-1.1-.2-2.2-.5-3.3-.9.1.2-2.2-.6-.1.3.5.1 1 .3 1.5.5.3.1.6.2.7.2h-.1c1.3.4 2.8.5 4.1.1-1.5.5-3.1.5-4.6-.2-.9-.2-1.9-.4-2.5-.5-2.3-1.1-6.8-2.9-7.4-3.3-3.2-1.1-7-2.6-10.3-3.8l-.5 1.1c2.1 1 3.9 1.8 5.2 2.3.7.3 1.4.7 2.1 1.2-.8-.4-1.8-.9-2.3-1.1 2.9 1.4 8.5 4.2 9.2 4.3 3.5 1.9-2.1-.8 2.8 1.6l-.7-.3c1.2.7 2.3 1.3 3.4 1.8l.4.2.2.1h.1v.1c-.1.1-.2.2-.2.3l-.1.1-.3.3c-.7.7-1.6 1.2-2.6 1.3-.2 0-.4 0-.7-.1-.2-.1-.4-.2-.7-.4l-1.5-.9c-4-2.2-8.1-4.4-13.3-7.6.4.2.8.5 1.2.8l-3.2-1.9-.4.7c2.5 1.9 5.1 3.9 7.6 5.8l3.9 2.9 1.9 1.4.8.6.3.2.2.1.1.1-.1.1c-.2.2-.4.3-.6.5l-.2.1-.3.1c-.2.1-.3.2-.5.2-.7.3-1.4.4-2.2.3-.7-.2-1.4-.5-2-1-.6-.4-1.2-.9-1.9-1.4-2.4-2-4.7-4.2-6.8-6.4-1.2-1.1-1.9-1.8-2.4-2.3l-.7.6c.7.9 1.2 1.4 2.1 2.5l.3.8 2.6 3.1 2.4 3.3 1.1 1.5.4.5c-.2.1-.4.3-.6.3-.1 0-.2.1-.3.1-.1 0-.3.1-.4.1-.3 0-.6.1-.9 0-.6-.1-1.3-.3-1.8-.6l-.9-.6c-.3-.2-.6-.5-.9-.7-.6-.6-1.1-1.2-1.5-1.9.1.3.2.6.4.8-.9-1.4-1.7-2.9-2.4-4.4-.4-.8-.8-1.7-1-2.6-.3-.5-.5-.9-.7-1.4l-.6.2v.3l-.1.1 1.4 6.2c.4 2.4.3 2.3.2 2.4 0 0-.1.2 0 .7v.5c0 .1-.2.1-.3.1h-.3c-.1 0-.1-.1-.2-.1-.6-.3-1.1-.8-1.5-1.3-.5-.6-.9-1.3-1.2-1.9-.6-1.3-1-2.2-.9-1.7.3 1 .9 2.6.9 2.7-.4-.7-.7-1.5-1-2.2-.2-.2-.6-.7-.6-.4 0 .4.1.8.2 1.1.3 1.1.7 2.1 1.3 3.1.5.6 1 1.2 1.7 1.7.4.3.8.5 1.3.6.5.1 1 .1 1.5-.1.2 0 .3-.1.5-.1h.1v-.3l.1-.4v-.5l.1.4v.9c-.3.2-.7.4-1.2.4h-.7c-.2 0-.5-.1-.7-.2-.2-.1-.4-.1-.5-.3-.2-.1-.3-.2-.4-.3.2.2.5.4.7.5.2.1.3.1.5.2s.4.1.5.1c.6.1 1.2 0 1.8-.3.1-.5.1-1.1-.1-1.6l-.1-.4-.1-.3-.1-.5c0-.6-.1-1.2-.2-1.8l-1.1-4c0-.5.6 1.8.1-1-.5-1.9.1 1.9-.6-1.2 0-.4-.1-.7-.1-.9l-1.1.3c.2 1 .6 1.9 1 2.8.1.3-.2-.1-.6-1 .4 1 1 2.2 1.6 3.4.4.9.9 1.8 1.5 2.6.3.6.7 1.2 1.1 1.8l.9.9.5.4.5.4c.9.5 1.7.9 2.7 1.2.4 0 .7 0 1.1-.1.3 0 .5-.1.8-.2.1 0 .1-.1.2-.1s.2-.1.3-.1l.6-.3c.3-.2.7-.5 1-.8l.1-.1v-.1l-.1-.1-.2-.3c-.1-.2-.2-.4-.3-.5l-1.1-1.5c2.4 2.6-4.3-5.8-3.4-5.3-.9-1-2.4-2.9-4-5l-1.2 1.1c1.8 1.8 3.8 3.7 5.6 5.1-.3-.2-.6-.5-.9-.8 1.9 1.8 2.4 2.4 3.6 3.5.8.4 1.5.9 2.2 1.4l1.8 1.2c.6.4 1.3.5 2 .5.9.1 1.2 0 1.2.1-.2.1-.5.2-.8.2h-1.3c-.4 0-.5-.1-.2.1 0-.1.4 0 1 .1.7 0 1.4-.1 2.1-.3.3-.1.6-.3.9-.4l.4-.2.4-.3c.5-.4.6-.5.2-.3.3-.2.7-.5 1-.7l.2-.2.1-.1-.1-.1-.3-.3-.4-.4-.4-.3-.3-.3-.3-.3-.5-.5c-.5 0-1.8-1.3-3.6-2.4-2.7-2.2-.5-.8-3.7-3-1.2-1.4 1.6.5 1.6.5zm22.3-4l.4.1s.1 0 .2.1l-.1.2-.3.6c-.2.3-.4.7-.6 1l.6-.9.3-.6.1-.2v-.1h-.1l-.5-.2zm-7.9-2.2l3.2.9c.2.1-.1.1-.8-.1-.7-.3-1.5-.6-2.4-.8zm1.2 5.4c.4 0 .8.1 1.2.1h.4c-.6.1-1.3 0-1.9-.1h-.1.4z" fill="#94a5ed" data-color="1"/>
        <path d="M157.3 104.1l-.5-.1.7.3.4.1-.6-.3z" fill="#94a5ed" data-color="1"/>
        <path d="M55.1 100.8l-.2.1c.1 0 .2-.1.3-.1 0-.1 0-.1-.1 0z" fill="#94a5ed" data-color="1"/>
        <path d="M156.2 90.9h-.7.7z" fill="#94a5ed" data-color="1"/>
        <path d="M50.8 109.7c.2-.1.3-.2.5-.2-.2 0-.3.1-.5.2z" fill="#94a5ed" data-color="1"/>
        <path d="M62.7 101.9l-2.1 1.5 2.1-1.5z" fill="#94a5ed" data-color="1"/>
        <path d="M51.5 110.6l-.2.2.2-.2z" fill="#94a5ed" data-color="1"/>
        <path d="M31.7 92.3h-.6c-1.4.1-.4.1.6 0z" fill="#94a5ed" data-color="1"/>
        <path d="M31.1 98c-.6-.4-1.2-.9-1.8-1.4 1 .9 1.7 1.5 1.8 1.4z" fill="#94a5ed" data-color="1"/>
        <path d="M35.1 85.1h-.5.5z" fill="#94a5ed" data-color="1"/>
        <path d="M29.1 94.3c-.4.1-.7.1-1.1.2h-.3v.1l.1.1.3.4c.4.5.8 1 1.3 1.4-.5-.5-.9-1-1.3-1.5l-.3-.4c-.1-.1 0-.1.1-.1h.2l1-.2z" fill="#94a5ed" data-color="1"/>
        <path d="M69 106.6l-.1.7v.1l.1-.8z" fill="#94a5ed" data-color="1"/>
        <path d="M68.9 107.3l-.1.7c.1-.2.1-.4.1-.7z" fill="#94a5ed" data-color="1"/>
        <path d="M68.6 109.6l.2-1.6c-.1.6-.2 1.1-.2 1.6z" fill="#94a5ed" data-color="1"/>
        <path d="M60.6 116.5h-.3c.1.1.2.1.3 0z" fill="#94a5ed" data-color="1"/>
        <path d="M60.1 112.1l-1.6 2.1c-.1.1-.2.3-.3.4l-.2.4-.1.2s-.1.1 0 .1l.1.1c.1.1.3.2.4.3.3.2.6.4.9.5l.9.3h.2c-.5 0-.9-.2-1.3-.4l-.9-.6-.2-.2-.1-.1.1-.1.3-.5c.2-.3.5-.7.7-.9l.5-.6c.2-.4.4-.7.6-1z" fill="#94a5ed" data-color="1"/>
        <path d="M58.4 111c1.2-1 2.4-2.1 3.5-3.2-.7.5-1.5 1.2 0-.3-2.3 2-2 1.8-1.8 1.6.4-.1.7-.2-1.7 1.9z" fill="#94a5ed" data-color="1"/>
        <path d="M53.4 110.3c-2 1.6.1.1 0 .2 1.2-1.1 1.5-1.3 0-.2z" fill="#94a5ed" data-color="1"/>
        <path d="M44.6 100l-.2.2c1.9-.5 0 0 .2-.2z" fill="#94a5ed" data-color="1"/>
        <path d="M59.7 95.5l1.9-.3.4-.1-.2-1-.5.2.5-.2.2.8c-.1.1-2.3.6-2.3.6z" fill="#94a5ed" data-color="1"/>
        <path d="M47.6 96.7l.8-.2-3.2.7 2.4-.5z" fill="#94a5ed" data-color="1"/>
        <path d="M25.2 78.1l-.6-.3c-1.3-.1-1.6.1.6.3z" fill="#94a5ed" data-color="1"/>
        <path d="M96.3 72.1c.2-1.5.3-2.9.2-4.4 0 1.7-.2 3.5-.2 4.4z" fill="#94a5ed" data-color="1"/>
        <path d="M174.5 86.6c.1-.2.2-.5.3-.6v-.1.1l-.1.3c-.1.1-.1.2-.2.3-.2.3-.4.7-.7 1 .3-.2.6-.6.7-1z" fill="#94a5ed" data-color="1"/>
        <path d="M110.3 156.5c0-.1-.2-.1-.2.2l.2.2v-.4z" fill="#94a5ed" data-color="1"/>
        <path d="M109.4 158.2c0 .4 0 .8.3.7 0-.3 0-.6-.1-.9.1-.3.2-.5.3-.4 0-.1.2-.4.1-.6-.3.4-.4.8-.4 1.3-.1.1-.2 0-.2-.1z" fill="#94a5ed" data-color="1"/>
        <path d="M103.6 159.4c0-.1 0-.1.1-.2-.1 0-.1.1-.1.2z" fill="#94a5ed" data-color="1"/>
        <path d="M99 153.7v.2c.1-.1.1-.2 0-.2z" fill="#94a5ed" data-color="1"/>
        <path d="M103.6 159.4l-.2.4.2-.4z" fill="#94a5ed" data-color="1"/>
        <path d="M107.7 161.9l.2-.2-.2.2z" fill="#94a5ed" data-color="1"/>
        <path d="M104.1 152v-.1l-.1-.1.1.2z" fill="#94a5ed" data-color="1"/>
        <path d="M105.4 153c0-.1-.2-.2-.3-.2.1.1.1.2.2.3 0 0 .1 0 .1-.1z" fill="#94a5ed" data-color="1"/>
        <path d="M106.3 161.6h.1-.1z" fill="#94a5ed" data-color="1"/>
        <path d="M103.9 156c-.1.1-.1.1 0 0-.1.1-.1.1 0 0z" fill="#94a5ed" data-color="1"/>
        <path d="M84.2 111.4c0-.1 0-.1 0 0-.1-.1-.1 0 0 0z" fill="#94a5ed" data-color="1"/>
        <path d="M77.6 110.1c.1 0 .1-.1.1-.1l-.1.1z" fill="#94a5ed" data-color="1"/>
        <path d="M97.4 152.3c0-.2 0-.1 0 0z" fill="#94a5ed" data-color="1"/>
        <path d="M85.5 155.7c-.4.4.2-.9-.4-.2.1-.1 0 .7.4.2z" fill="#94a5ed" data-color="1"/>
        <path d="M107.6 162l-.3.2c.1-.1.2-.2.3-.2z" fill="#94a5ed" data-color="1"/>
        <path d="M91.9 160.6l.1.1-.1-.1z" fill="#94a5ed" data-color="1"/>
        <path d="M97 155.4l-.1.2c.1-.1.1-.1.1-.2z" fill="#94a5ed" data-color="1"/>
        <path d="M91.3 158.5c.1-.1.1-.2.1-.3-.1.2-.1.3-.1.3z" fill="#94a5ed" data-color="1"/>
        <path d="M92.5 153.8l-.1.2.1-.2z" fill="#94a5ed" data-color="1"/>
        <path d="M91.9 120.2c0-.1.1-.1.2-.2-.1.1-.2-.6-.2.2z" fill="#94a5ed" data-color="1"/>
        <path d="M107.7 161.8c0 .1 0 .1-.1.2 0-.1.1-.1.1-.2z" fill="#94a5ed" data-color="1"/>
        <path d="M89.9 157.9l.2-.8c-.1.3-.2.6-.2.8z" fill="#94a5ed" data-color="1"/>
        <path d="M77.2 151.4l.1-.2c0 .1-.1.1-.1.2z" fill="#94a5ed" data-color="1"/>
        <path d="M90.7 154.9c.1-.1.2-.3.2-.4v-.1l-.2.5z" fill="#94a5ed" data-color="1"/>
        <path d="M91.2 115.3c.2.6.3.2.5.3.3.8-.1.4-.2.7.2.4.3.8.4 1.3 0 0 0 .1-.1 0 .2.6.1 1.7.3 2.3 0 0 0 .1-.1.1.1-.1.2-.1.4-.1 0 .3.1.6-.1.7 0-.2 0-.2-.1-.3v.4c-.3.3 0-.5-.2-.5.1.7.1 1.3 0 2-.2.1.1-1.2-.2-.6.1-.3.1-.5.2-.8-.4.6.1-.5-.4 0-.2 1 0 1.2-.2 2.2.1.3.2 0 .3.2 0 1.5-.8 1-.7 2.2.2.4.2.8 0 1.2l-.2-.3c-.3 1 .2.7-.2 1.7 0-.2.1-.8 0-.7-.4.6 0 .5-.1 1h-.3c-.3 1.1-.4 2.3-.8 3.4 0-.1 0-.3-.2-.1-.4 1.5-1.1 2.9-2 4.2l-.1.6c-.1.1-.2.2-.2 0-.3.5.1.1 0 .4-.1.3-.3.3-.3.1-.5 1.2-1.1 2.4-2 3.4l.1-.2c-.5.7-.2 1-.8 1.6l.1-.1c-.9 1.5-2 2.9-3.1 4.2.1.4-1.1 1.4-.9 1.7-.6.5-1.1 1-1.6 1.6-.2.3-.1.6-.4 1l-.2-.1-.2.7-.4.1-.2.4c.1-.1.3-.3.3-.2-.3.5-.7 1-1.2 1.3l-1 1.6.6.6c-.3-.1-.6-.3-.8-.5.6.5.6.5.6.6 0 .1-.1.1.6.5-.1-.1.2 0 .2 0 .3.3.6.5 1 .7.4.2.8.3 1.3.4l-.2.1c.8.2 1.6.1 2.4-.1.8-.3 1.5-.7 2.1-1.3-.5.3-.5 0-.2-.3h.3c.1-.3-.4.3-.1-.3.4-.4.4-.1.3.2l.4-.6c.1 0 0 .2 0 .2.1-.3.9-.7 1-1.2h.1c.9-1.1 1.2-1.7 1.8-2.6-.1-.1.1-.5.2-.8.6-.7 1.2-1.4 1.7-2.2.3-.7 0-.3 0-.6.2 0 .7-.8.5-.3.4-.7.6-1 .9-1.7l-1.4-.7-.4 1.2c.1-.1.2-.3.2-.2-.1.3-.3.5-.4.5v-.1c-.4 1.7-2 3.4-2.2 4.8v-.1l-.4 1.4c-.3.6 0-.4-.3 0-.3 1.5-1 2.2-1.3 3.4-.5.6-.9 1.2-1.1 2l-.4 1.1c-.1.4-.2.7-.3 1.1-.1.1.1.1.2.1l.2.1.5.2.9.3-.1-.1c.2 0 .4 0 .6.1.1.1.2.1.3.1 0-.1-.4-.2-.2-.2.8.1 1.6.1 2.4-.1.9-.1 1.7-.5 2.4-1.1.6-.6 1.1-1.2 1.6-2 .4-.7.8-1.3 1.1-2 .5-1-.3-.8.5-2l.1.4c.5-1.7 1.2-3.4 1.7-5.1l-1.6-.5c-.1.4-.2.9-.3 1.3 0-.1-.1-.2 0-.4-.3.5-.4 1.1-.3 1.6-.1.3-.1 0-.3.2-.2.4-.1 1.1-.3 1.3v-.2c0 .3-.4 1.3-.1 1.1-.3.7-.3 1.5-.6 2.1.1.5-.5 1.3-.2 1.5-.3-.1-.6 1.3-.6 1.8 0-.2-.2.4-.3.2-.1.6-.2 1.1 0 1-.1.2-.3.5-.3.7-.1.4-.2.8-.2 1.2 0 .3-.2.8.2.8.3.1.5.2.7.4.4.1.7.1 1.1.1h.7c.4 0 .9-.1 1.3-.2s.9-.2 1.3-.4l.6-.3c.2-.1.4-.3.6-.4 0 .1 0 .2-.2.4-.2.1-.4.3-.6.4-.4.2-.9.3-.8.5.4-.1.7-.3 1-.5.2-.1.3-.2.5-.4l.4-.4c.4-.6.7-1.2 1-1.8.2-.3 0 .3 0 .4.6-1.3 1-2.7 1.3-4v.3c.1-.3.2-.6.1-.6v.3c-.3.3-.1-1.1-.2-1.2.3.5.4-1.2.7-.4 0-.2 0-.4-.1-.4.1-.2.2-.3.2 0 .1-.9-.1-.6.1-1.4.1 0 .1.2.1.3-.1-.5 0-1.1.1-1.6 0 .1.1 0 .1.2.1-.5.1-1.1.2-1.6l-.9-.1c0 .6 0 1.2-.1 1.8-.3-.4-.1.4-.4.5v.7l.2-.3c0 .6 0 1.1-.1 1.7l-.1-.5-.1 1.2.2-.6c.1.6.3 0 .2.8-.1.3-.1.6-.2.9.1.4.1.7 0 1.1-.1.1-.3-.1-.3-.1.2.3-.1 1.5.1 1.9 0-.1-.2-.2-.2-.1l.1.3c-.1.3-.1.3-.2.3-.1.9.4-.2.1.8v-.2c-.1.5-.1 1-.1 1.5v1.1l-.1.4c-.1.1-.1.1-.1 0v-.3c0-.2 0-.4-.1-.3 0 .5-.1.9 0 1.4v.1l.1.1.2.1c.1.1.2.1.3.2.2.1.5.2.7.2.8.1 1.5.1 2.3-.1h-.3c.1-.2.3-.2.6-.3.4 0 .7-.2 1-.5-.1.1-.1.3-.1.2.2-.1.4-.3.6-.4.2-.2.4-.4.5-.6l.3-.3.2-.4c.1-.2.1-.3.2-.5s.1-.3.2-.5v.2c.3-.6.5-1.3.6-2-.1-.2 0-.5-.2-.3.8-1.7 0-3.4.5-5 0 .2.1.5.1.3l-.1-1.4c-.2.1-.1.2-.2.5-.1-.3-.2-.6-.2-.9.1.6.3 0 .3-.3h-.2c.3-.7-.3-.1-.1-1.1h.1c0-.2-.1-.3-.1-.5h-.2c.1.2.1.4.1.6-.2.2-.1-.4-.3-.4.1.5.5 1 .3 1.5-.1-.2-.1-.6-.2-.8-.1.3-.1.7-.1 1v.9-.2c.5.6.2 1.4.6 2.3-.4-.9-.2-.1-.4-.2 0 .2-.1.6-.1.5.2.4-.1.7.2 1.3-.1 0 0 .5-.1.4.1.6.1-.1.2-.1.3.8-.1 2.1.4 3.3.1.4.2.8.4 1.2l.2.5c.1.1 0 .4.4.4.1.1 0 .1-.1.2h-.3c.5.3 1.1.3 1.6-.1-.1.1 0 .1.3.1.4-.3.1-.4.6-.7 0 .2-.1.4-.1.5.4-.4.6-.9.8-1.4.2-.1 0 .4-.1.6.3-.5.7-1.4.6-1.7-.1.1-.1.2-.2.3.1-.2.2 0 .2.1-.1.5-.4.6-.5.6.1-.1.1-.2.1-.3-.2.1-.4.4-.6.8-.2.4-.5.7-.8 1 0-.1.1-.3.1-.4l-.2.3-.3.3c-.2 0-.3-.1 0-.3-.1 0-.3.1-.4.1-.1.1-.2.1-.4 0v-.1h-.4l.1-.1h.2l-.1-.1v-.3c0-.1-.1-.2-.1-.3 0-.1-.1-.2-.1-.3v-.3.1c-.2-1.2-.2-.1-.6-1l.4-.7-.2-.1c0-.1 0-.4.1-.3-.2-.5-.1.1-.2-.2.1-.6-.3-1.7.1-1.9-.2-.2-.1.6-.2 0 .3-.2-.1-.8 0-1.3.2.2.2.7.3.1-.3-.3 0-1.1-.2-1.6-.2 0-.2-1-.4-1.8.1-.6.1-1.1 0-1.7l-.8.1v.6c.3.1.2.9.3 1.5-.1 0-.2-.1-.3-.4v.5c.1.2.2.4.1.6l-.2-.1c.1.8.1 1.5 0 2.3.2.1.5-.7.6.3-.1 0-.3.1-.3-.2v.5l-.1-.4c-.1.4.1.2.1.6-.1 0-.1.2-.2.2 0-.1.1-.3 0-.4 0 .3-.1.7-.3.9.1 0 .2 0 .2.3-.1.7-.2.2-.3.6.1.2-.1.6.1.6 0 .2-.1.2-.2.3.1.4-.3 1.6 0 1.3v-.1.1c0 .3-.1.6-.2.9-.1.1-.1.3-.2.4-.1.1-.1.3-.2.4l-.6.6-.6.6v-.1c-.5.4-1.1.8-1.7 1-.2 0-.5-.1-.4-.2h-.8c-.1 0-.2-.1-.4-.2.4 0-.1-.1.5 0-.1 0-.2-.1-.3-.1l-.2-.1c-.1 0-.1-.1-.2-.1 0 0-.1 0-.1-.1v-.1c.1 0 .1-.1.2-.2v-.5l-.1.2c0 .1 0 .1-.1.2v-.5l.1-.5.2.2c.4-1.4-.2-2.6.4-3.7-.1-.4-.2.8-.3.4.1-.5.3-1 .5-1.5.2-.9-.2-.9-.1-1.8-.1.1-.3.2-.3-.5.1-.7.4-.8.4-.4 0 .2 0 .2-.1.2 0 .2 0 .5.1.2l-.1-.1c.1-.3.2-1.2.3-1 0-.5-.1-.2-.2.1.2-.8.1-1.3.3-2.2-.1.1-.2.3-.2.1.2-1.3-.1-.6 0-1.4.2-.5.3.1.3-.6l-1.1-.2v.1c-.2.5-.2.1-.3-.1l1.6.2-1.6-.2c-.1.6-.2 1.3-.5 1.8v-.4c0 .2 0 .4-.1.7l.2-.2c-.1.2-.1.4-.2.4.1.3.3-.1.3.4-.1.3-.1 1-.4 1.1.3-1-.2.1-.1-.8 0 .2-.1.4-.1.6v-.1c-.4.9.1.5-.1 1.5-.1-.2-.3.2-.3.3.1-.4.2-.1.2.2-.3.6-.1.7-.2 1l.2-.4c.1.2 0 .5-.1.9-.1 0 .1-.4 0-.3.1.5-.5 1-.6 1.7-.2.3-.2-.1-.4.2-.1.8-.5.7-.7 1.4.2-.1.2-.2.1.4.2-.4.3-.8.5-1.2 0 .3-.1.6-.1.9.2-.3.3-.8.4-1 0 .4-.1.4.1.2-.4.4-.3 1.1-.8 1.5l-.3-.2-.4.4-.1.1-.2.2c-.4.3-.9.5-1.3.5h.4c-.1.2-.7.2-1.1.2 0-.1-.2-.2-.4-.3h-.7c-.1 0-.1.1-.2.1l-.2-.2h-.1v-.1c0-.1-.1-.1-.1-.2s-.1-.2-.1-.3c0-.2.1-.4.1-.6.1.3.3-.1.2.6.1-.3.2-.6.1-.6.1-.2.1-.9.3-1.2-.1-.2-.1-.4 0-.6h.1c-.1 0 .1-.6-.2-.3.7-.9.7-2.8 1.3-3.5.1-.7.3-1.6.5-2.2 0 .1.1 0 0 .1.4-.8-.2-.6.2-1.6.3-.5 0 .6.1.3.5 0 .3-1.2.7-1.8v.2c.1-.3.2-.6.2-.9l-1.2-.3c0 .4-.1.8-.3 1.2 0 0 0-.1-.1 0-.1.9-.2 1.7-.5 2.5-.1-.3 0-.4-.2-.3-.1.4.3 0 .1.7-.2.2-.4.7-.6.7l.2-.7c-.4.2-.3.8-.5 1.2l-.1-.1c-.2.7-.4 1.5-.6 2.2l.1-.1c0 .7-.4.4-.5 1h-.3c-.2.7-.5 1.3-1 1.9.2-.4.5-1.1.7-1.6-.3.4-.5.9-.7 1.3.1-.1.2-.3.3-.4-.1.6-.6 1.2-1.2 1.4-.1-.3-.5-.1-1.1 0-.5.1-1 .1-1.5-.2h-.7c-.1 0-.1 0-.2-.1h-.1v-.1l.1-.2.1-.1v-.1c.2-.4.3-.7.5-1.1-.6.4.2-.5-.2-.5.1-.4.2-.5.2-.5l.7-1c.2-.2-.1.4 0 .4.4-.8.3-.3.6-.7-.2 0-.1-.4.2-.8l-.5.6c.3-1.2.7-.8 1-2v.4c.4-.9.7-1.9.9-2.8.1-.1.3-.2.2.1.6-1.4 1-3.2 1.6-4.2v.1c.1-.3 0-.5.2-.8 0 0 0 .1.1 0l-1.5-.7c-.1.4-.2.7-.4 1l.1-.3c-.6 1-1.1 2-1.5 3.1-.2-.2-1 .7-1.3 1.2-1 1.4-1.5 2.5-2.4 3.8-.2.2-.5.4-.7.6-.3.2-.6.5-.9.7-.6.4-1.3.6-2 .5.2.1 0 .2-.3.2-.2 0-.4-.1-.5-.1-.2 0-.3-.1-.2-.2h.1c-.1-.2-.3-.3-.5-.4l-.2-.1-.1-.1h-.1c-.1.1-.2.1-.4.2v-.2c.1 0 .1-.1.2-.2l.1-.1.1-.2c.2-.3.5-.7.7-1 .3-.6.7-1 1.2-1.4.1-.4.4-.7.6-1.1l.1.1c.6-.7 1.1-1.5 1.7-2.3v.3c.4-.6.1-1.1.4-1.6h.4c.8-1 1.5-2 2.1-3.1 0 0 .1.1 0 .3.3-.5 1.4-1.8 1-1.9.2.1.7-1.1 1-1.7l.3-.5c0-.5.2-1 .4-1.4.1-.2.2-.1 0 .1.4-.5.1-.5.6-1.1v.3c.2-.3.3-.6.3-.9.1-.4.6-1.1.8-1.1 0-.3 0-.6.2-.8.1 0 .1.1 0 .2.6-1 .5-1.6.9-2.2.1 0 .1 0 .2-.1-.2.5-.4.9-.6 1.4.2.1.5-.6.5 0 .1-.8.2-1.5.5-2.2l.1-.1v.1c.1-.1.1-.3.1-.4.1-.2.2-.3.2-.5.2 0 .3-.8.4-1.1-.2 0 0-.5-.3-.1 0 0 0 .1-.1.3v.1l-.3.8c0-.3 0-.7.2-.9-.1-.2-.1-.4-.2-.6.4-.4.8-1.2 1-1.3.3-1.1.4-2.1.3-3.2 0-.3.2-.3.2-.4v.5c0-.6.3-1.8.1-2 .2-.7.2.5.3-.6l.1.2c.3-.9.4-1.9.2-2.8-.1-1-.2-2-.1-3 0 .2 0 .2-.1.3 0-.7-.1-1.4-.3-2-.2-.7-.5-1.3-1-1.9-.9-1-2.1-1.9-3.3-2.4-.4-.2-.9-.3-1.3-.2l-.1-.2h-.8c-1.1 0-1.8-.9-3.2-.7l.2.2c-.5-.1-1.6-.1-1.5-.2-.1.1-.2.1-.4.1v-.1l-1.2.1c-.9-.1.2-.4-1.2-.5-.5 0-1.5.3-1.3.4.2 0 .5.1.5.2l-.5.1c-.1.3-.4.6.7.9l.8-.2.2.2h-.7c.3.1.6.1.9-.1.1.1.2.2.3.2.3-.1.5-.2.8-.3.1.1-.4.2.2.3.4-.1-.3-.3.3-.4.4.2.2.3.7.2.1.1 0 .1-.2.2.4-.1 1 0 1.2-.1.4.2 1.3.1 1.2.4.3-.1.7-.1 1.1-.1-.4.1 0 .2.4.3s.8.2.7.4c.4-.1.8-.1 1.1.1.4.2.9.3 1.3.4h-.2c.2.2.5.3.7.5.2-.2.8.1 1.2.2.2.6-.4 0-.5.3.1-.2.8.4.8.2.1.4.2.3.1.6.1-.1.2 0 .3.1.1.1.2.3.3.4.1.6-.2.3.1.8.2-.1-.1-.6-.1-.6zm-1.6 16.6c0-.1.1-.3.1-.3l-.1.3zm-.5 1.3c.1-.2.1-.4.2-.6.1 0 .1.1.1.2 0-.1-.1.3-.3.4zm2.3-2.5c0 .2-.1.3-.2.3l.2-.3-.1-.1.1.1z" fill="#94a5ed" data-color="1"/>
        <path d="M91.3 130.3c0-.1 0-.1 0 0v.1-.1z" fill="#94a5ed" data-color="1"/>
        <path d="M103.6 159.2s.1 0 0 0c.1 0 .1 0 0 0z" fill="#94a5ed" data-color="1"/>
        <path d="M78.1 150l.1-.1-.1.1z" fill="#94a5ed" data-color="1"/>
        <path d="M104.9 151.2v-.1c.1 0 .1 0 0 .1z" fill="#94a5ed" data-color="1"/>
        <path d="M104.5 154.3c0 .1 0 .1 0 0z" fill="#94a5ed" data-color="1"/>
        <path d="M98.3 155.6v.1c-.1.2 0 .1 0-.1z" fill="#94a5ed" data-color="1"/>
        <path d="M98.2 155.1v-.4c-.1.2-.2.4 0 .4z" fill="#94a5ed" data-color="1"/>
        <path d="M98.2 154.1c-.1.2-.1.4-.1.6 0-.2.1-.4.1-.6z" fill="#94a5ed" data-color="1"/>
        <path d="M109.4 159.8l.1-.1-.1.1z" fill="#94a5ed" data-color="1"/>
        <path d="M109.4 159.6v-.1c.1.1 0 .1 0 .1z" fill="#94a5ed" data-color="1"/>
        <path d="M109.6 159.2l-.1.3c0-.1.1-.2.1-.3z" fill="#94a5ed" data-color="1"/>
        <path d="M106.2 162.3c-.1.1 0 0 0 0z" fill="#94a5ed" data-color="1"/>
        <path d="M105.2 161.6c0 .2.1.4.1.6.2.2.4.2.7.2l.1-.1c-.2 0-.4 0-.6-.2-.1 0-.1-.1-.1-.2v-.2c-.1.1-.1 0-.2-.1z" fill="#94a5ed" data-color="1"/>
        <path d="M105.6 156.7v.9c.1-.2.1-.4.2 0 .1-1.1-.1.3-.2-.9z" fill="#94a5ed" data-color="1"/>
        <path d="M105.4 153.9c.1.5.1 0 .2 0-.1-.3-.2-.3-.2 0z" fill="#94a5ed" data-color="1"/>
        <path d="M99.5 162.7v-.2c-.2 0 .1.1 0 .2z" fill="#94a5ed" data-color="1"/>
        <path d="M97.4 160.6l-.1.4.1.2v-.6z" fill="#94a5ed" data-color="1"/>
        <path d="M98.9 158.5v.2-.7.5z" fill="#94a5ed" data-color="1"/>
        <path d="M92.5 154.7l-.2.1c-.1.2.1.3.2-.1z" fill="#94a5ed" data-color="1"/>
        <path d="M90.4 154.6c-.2.2-.4.4-.4.7.2-.2.3-.4.4-.7z" fill="#94a5ed" data-color="1"/>
        <path d="M77.6 153.6c.1 0 .1 0 0 0 .1 0 .1 0 0 0 .1 0 .1 0 0 0z" fill="#94a5ed" data-color="1"/>
        <path d="M119.2 91.1c0-.1 0-.3.1-.2-.1 0 0-.2-.1-.3-.1.2-.1.5.1.7 0 .1-.1 0-.1 0 .1.2.3.3.4.2-.2-.2-.1-.3-.4-.4z" fill="#ef7070" data-color="2"/>
        <path d="M109.8 84.8c.1 0 .1 0 .2.1-.1-.1.2-.3-.2-.1z" fill="#ef7070" data-color="2"/>
        <path d="M119.6 93.3s0-.1 0 0c0-.1-.1-.1 0 0 0-.1 0 0 0 0z" fill="#ef7070" data-color="2"/>
        <path d="M97.3 108c0-.1 0-.2-.1-.2h-.1l.2.2z" fill="#ef7070" data-color="2"/>
        <path d="M119.6 92.5c0-.3-.1-.8-.3-.9v.2c0-.1.1-.1.2 0 .1.3 0 .4-.1.4V92c-.3.2.1.7 0 1.1l-.2-.2c.1-.9 0-1.9-.2-2.8h.3v.1l.2.1-.1-.2c.1-.1.2-.2.1-.5-.1-.1-.2-.3-.3-.4V89c.1.1.1.2.2.4 0-.3-.1-.3-.3-.4v-.2c-.1-.1-.3-.2-.4-.2.1-.1.3.1.1-.2-.2-.1-.1.3-.3.1 0-.2.1-.2-.2-.4 0-.1.1-.1.2 0-.2-.1-.4-.4-.6-.4 0-.3-.5-.5-.4-.6-.2 0-.4-.1-.6-.2.5 0-.6-.5-.3-.7-.4 0-.9-.5-1.4-.6h.1c-.1-.1-.3-.2-.4-.4-.1.2-.5.1-.8.1-.2-.3.3-.2.2-.4 0 .2-.6 0-.5.1-.2-.2-.2-.1-.3-.3-.1.2-.2 0-.5.1-.3-.2-.1-.3-.5-.2-.2-.1.2-.2.2-.1-.4-.1-.2.2-.3.3-.5 0-.2-.2-.4-.3-.3 0-.6.2-.8.2 0 0-.1 0 0-.1-.3.2-1 .1-1.3.4h-.1c.1.1.1.1.1.2-.2.1-.3.2-.4.1.1 0 .1-.1.1-.1l-.2.1c-.2-.1.2-.1.2-.3-.4.2-.7.5-.9.6-.1-.1.6-.3.2-.3l.4-.1c-.4-.1.3-.1-.1-.3-.6.2-.6.4-1.1.6-.1.2.1.1.1.3-.2.2-.4.3-.7.3-.2 0-.4.1-.5.3 0 .2.1.4-.3.6l-.1-.3c-.4.4 0 .4-.5.8 0-.1.2-.4.1-.3-.4.2-.1.3-.3.5l-.2-.1c-.2.3-.3.5-.4.7-.2.2-.4.5-.6.7 0-.1 0-.2-.1-.1l-.2.2-.1.1c-.1-.1-.1-.1-.1-.2 0 0-.1-.1-.1-.2l-.2-.3-.3-.1v-.1c-.2-.3-.1.1-.2 0s-.1-.2 0-.2l-.9-.6c-.3-.2-.6-.4-.8-.7h.1c-.3-.3-.6 0-.9-.4h.1c-.8-.6-1.8-.9-2.5-1.4-.2.2-.9-.4-1.1-.1-.3-.2-.7-.4-1.1-.5-.2 0-.3.2-.6.2v-.2c-.1 0-.2.1-.4.2l-.2-.2h-.3c.1 0 .2.1.2.1-.3.1-.7 0-1-.1l-.9.3c0-.1.1-.1.3-.2-.4.3-.1-.1-.5.1.1 0 0 .1 0 .1-.4 0-.7.1-1.1.3v-.1c-.7.3-1.3.6-1.9 1 .3-.1.3.1.1.2l-.2-.1c-.1.2.2-.1.1.2-.2.1-.3-.1-.2-.2l-.3.2V86c-.1.2-.6.2-.6.5-.5.4-.9.8-1.2 1.2.1.1-.1.3-.1.5-.4.3-.7.7-1 1.2-.1.4.1.2.1.4-.1 0-.4.5-.3.2-.3.5-.4 1.1-.5 1.6.1-.1.1-.2.2-.1 0 .2-.1.3-.2.3l-.3 1.5c-.1.5-.1 1 .1 1.4.1.3.2.5.3.7.1.4-.1-.2-.2.1.4.8.4 1.3.8 1.9 0 .4.2.8.5 1.2.3.4.5.7.7 1.2v-.1c.2.1.1.2.2.3 0-.1-.1-.2.1-.2 1 1.2 2.1 2.3 3.3 3.4.4.4.6-.2 1 .4H92c1 .5 1.8 1.3 2.8 1.9h-.2c.1.2.6.5.7.5.1.1 0 .1 0 .2.1.2.5.2.5.4h-.1c.2 0 .5.5.5.3.2.3.6.5.8.8.3 0 .4.6.6.4-.2.1.3.6.5.8-.1 0 .1.2-.1.2.2.2.3.4.4.3 0 .6.8.8.6 1.2.5.6.9 1.4 1.1 2.1-.1 0-.2-.2-.3-.4s-.2-.4-.3-.3c.2.3.3.5.4.7.1.1.1.2.2.4s.1.4.2.6c.1.1.1.2.2.3.1.2-.1 0-.2-.1.1.1.1.2.2.3l.1.1h.2c.3 0 .5 0 .7-.2.1-.1.3-.1.4-.2.1-.1.3-.1.3-.2.1-.1.3-.2.4-.3 0 0 0 .1-.1.1.1-.1.3-.1.2-.2l-.1.1c-.3 0 .3-.6.3-.6 0 .4.6-.3.5.2.1-.1.1-.2.1-.2.1-.1.2 0 .1.1.4-.3.2-.3.5-.6v.2c.1-.3.3-.5.6-.6 0 0 .1 0 0 .1.5-.4.7-.8 1.3-1.2 0 .3.2-.1.4.1l.3-.3h-.2c.3-.2.4-.5.6-.6l-.1.2.4-.4-.3.2c.2-.3-.2-.2.2-.4-.1.1.3-.2.5-.2.1-.2.2-.3.4-.4.1 0 .1.2.2.2 0-.2.5-.5.6-.8 0 .1 0 .1.1.2v-.2c.1-.1.2-.1.2 0 .4-.3-.3-.1.2-.4v.1c.4-.3.7-.8 1.1-1 .2 0-.3.3 0 .3.5-.5.9-1.2 1.4-1.7l-.1.1c-.1-.3.5-.3.6-.6v.2c.4-.4.7-.9 1-1.3v.1c.3-.2.5-.5.7-.7 0-.1.1-.2 0-.2.9-.5.9-1.5 1.7-2-.1.1-.1.2 0 .2l.3-.6c-.1 0-.1 0-.3.1 0-.2.1-.3.1-.5-.1.3.2.1.3 0l-.1-.1c.4-.2-.2-.2.2-.5v.1c0-.2.1-.4.2-.5.2 0 0 .2.1.3.1-.2 0-.6.3-.8 0 .1-.1.3-.1.4.2-.1.3-.2.4-.4l.3-.4-.1.1c-.2-.5.3-.7.3-1.2 0 .5.1.1.2.2l.2-.2c0-.3.2-.3.2-.7.1 0 .1-.2.2-.1.1-.3-.1 0-.2 0 0-.5.6-1 .5-1.7 0-.4-.1-.8-.1-1.2v-.1c.1-.1.2.2.2.2.1-.2.1-.5.1-.8 0 .1.1 0 .1-.1 0-.2-.2-.2-.1-.4l.2.2c0-.3-.1-.5-.2-.8.4.2.5.4.5.5zM105.2 89l-.1.1.1-.1zm-.4.3v.1c0-.1-.1 0-.1 0s.1 0 .1-.1zm10.5 12.9s-.1 0-.1-.1l.2-.2s0 .1-.1.3zm3.6-6.8l-.2.1c0-.1 0-.2.1-.3 0 0 .1.1.1.2zm.2-1.9v-.4c0 .1.1.2.1.3 0 .1 0 .1-.1.1z" fill="#ef7070" data-color="2"/>
        <path d="M103 113.8s-.1 0 0 0c-.2.1-.1.1 0 0z" fill="#ef7070" data-color="2"/>
        <path d="M108.1 109.7c0 .1-.1.1-.1.2.1-.1.2-.2.1-.2z" fill="#ef7070" data-color="2"/>
        <path d="M119.6 91.8v-.2.2z" fill="#ef7070" data-color="2"/>
        <path d="M119.4 94.4c.1-.2.1-.3.2-.5 0 .1-.2.4-.2.5z" fill="#ef7070" data-color="2"/>
        <path d="M110.4 107.9l.2-.1v-.2c0 .1-.2.3-.2.3z" fill="#ef7070" data-color="2"/>
    </g>
</svg>
